<?xml version="1.0" standalone="no"?>
<!DOCTYPE svg PUBLIC "-//W3C//DTD SVG 20010904//EN"
 "http://www.w3.org/TR/2001/REC-SVG-20010904/DTD/svg10.dtd">
<svg version="1.0" xmlns="http://www.w3.org/2000/svg"
 width="512.000000pt" height="512.000000pt" viewBox="0 0 512.000000 512.000000"
 preserveAspectRatio="xMidYMid meet">

<g transform="translate(0.000000,512.000000) scale(0.100000,-0.100000)"
fill="#000000" stroke="none">
<path d="M0 2560 l0 -2560 2560 0 2560 0 0 2560 0 2560 -2560 0 -2560 0 0
-2560z m771 686 c124 -27 209 -88 256 -184 39 -79 45 -220 14 -303 -26 -69
-96 -139 -176 -175 -30 -14 -55 -29 -55 -34 0 -5 15 -17 33 -29 79 -48 105
-99 208 -408 l78 -234 -141 3 -141 3 -78 233 c-49 147 -88 247 -105 269 -39
52 -76 63 -204 63 l-110 0 0 -285 0 -285 -135 0 -135 0 0 690 0 690 313 0
c230 0 330 -4 378 -14z m1498 -663 c129 -373 236 -684 239 -690 3 -10 -29 -13
-140 -13 l-143 0 -53 160 -53 160 -262 0 -262 0 -53 -160 -53 -160 -141 0
c-108 0 -139 3 -136 13 3 6 110 317 239 690 l233 677 176 0 175 0 234 -677z
m721 397 c0 -230 2 -280 14 -280 7 0 116 126 242 280 l229 280 143 0 c123 0
143 -2 139 -15 -4 -8 -119 -154 -257 -325 -178 -219 -249 -314 -242 -323 5 -7
131 -166 281 -354 149 -188 271 -346 271 -352 0 -8 -50 -11 -157 -10 l-158 0
-238 295 c-131 161 -245 294 -253 294 -12 0 -14 -45 -14 -295 l0 -295 -140 0
-140 0 0 690 0 690 140 0 140 0 0 -280z m1718 265 c162 -38 249 -133 260 -286
6 -90 -16 -163 -69 -223 -23 -26 -54 -53 -70 -62 -36 -18 -37 -32 -1 -45 104
-39 176 -102 215 -187 29 -63 31 -231 4 -307 -37 -106 -130 -191 -252 -232
-42 -14 -109 -18 -427 -21 l-378 -3 0 690 0 691 328 0 c253 0 341 -4 390 -15z"/>
<path d="M350 2855 l0 -185 148 0 c153 1 204 11 244 47 35 32 49 72 49 139 0
86 -23 132 -81 162 -40 20 -58 22 -202 22 l-158 0 0 -185z"/>
<path d="M1760 2713 c-46 -142 -86 -264 -88 -270 -3 -10 37 -13 182 -13 102 0
186 3 186 7 0 25 -176 533 -185 533 -6 0 -49 -116 -95 -257z"/>
<path d="M4260 2880 l0 -170 154 0 c87 0 168 5 187 11 98 33 138 149 87 249
-38 72 -64 80 -260 80 l-168 0 0 -170z"/>
<path d="M4260 2306 l0 -206 193 1 c121 0 203 5 222 12 81 31 115 87 115 187
0 92 -28 146 -95 180 -47 24 -59 25 -242 29 l-193 3 0 -206z"/>
</g>
</svg>
